<svg clip-rule="evenodd" fill-rule="evenodd" stroke-linejoin="round" stroke-miterlimit="2" viewBox="0 0 9465 8950" xmlns="http://www.w3.org/2000/svg"><g fill-rule="nonzero" transform="matrix(4.16667 0 0 4.16667 0 -.333659)"><path d="m390.104 2147.95h-390.104v-2147.87h390.104v121.599h-250.125v1904.641h250.125z"/><path d="m1464.98 877.072c-24.29-89.034-118.71-229.332-304.87-229.332-186.149 0-334.539 148.39-334.539 418.18 0 242.8 126.804 420.87 339.939 420.87 205.05 0 283.27-156.48 323.75-264.39l277.88 145.68c-105.22 291.38-372.31 420.87-607.03 420.87-374.998 0-669.077-288.66-669.077-714.94 0-412.776 296.768-714.934 679.867-714.934 339.94 0 512.61 226.619 582.76 383.101z"/><path d="m1881.41.08h390.09v2147.87h-390.09v-121.63h250.13v-1904.641h-250.13z"/></g></svg>